<svg xmlns="http://www.w3.org/2000/svg" xml:space="preserve" viewBox="0 0 500 500">
<path d="M57.07 398.67 8.02 200.24C4.73 216.31 3 232.95 3 250c0 59.52 21.06 114.13 56.13 156.77-.71-2.76-1.4-5.47-2.06-8.1zm9.08-307.61 56.25 250.78 62.99-234.67c4.69-17.97 8.88-31.64 12.6-41.02 3.71-9.38 9.76-17.48 18.16-24.32 8.4-6.83 19.82-10.25 34.28-10.25 14.65 0 26.02 3.57 34.13 10.69 8.1 7.13 13.72 14.9 16.85 23.29 3.12 8.4 7.32 22.27 12.6 41.6l63.57 234.67 56.25-250.78c.35-1.66.69-3.28 1.03-4.85C389.61 35.18 323.57 3 250 3 176.41 3 110.35 35.2 65.1 86.26c.35 1.57.71 3.16 1.05 4.8z"></path>
<path d="M349.75 465.76c-8.01-6.64-13.58-14.11-16.7-22.41-3.13-8.3-7.52-22.51-13.18-42.63L250.43 143.2l-70.31 257.52c-5.47 19.53-9.81 33.54-13.04 42.04s-8.84 16.11-16.85 22.85c-2.85 2.4-6.05 4.36-9.57 5.91C173.63 487.82 210.74 497 250 497c39.23 0 76.32-9.16 109.26-25.44-3.5-1.52-6.68-3.44-9.51-5.8zm93.16-67.09c-.71 2.82-1.39 5.53-2.06 8.13C475.93 364.15 497 309.54 497 250c0-17.06-1.73-33.72-5.02-49.8l-49.07 198.47z"></path>
</svg>
